<svg xmlns="http://www.w3.org/2000/svg" xmlns:xlink="http://www.w3.org/1999/xlink" version="1.0" x="0" y="0" width="2400" height="1008.6470609776774" viewBox="62.68580093383789 79.89910354614258 214.6283981323242 90.20179290771485" preserveAspectRatio="xMidYMid meet" color-interpolation-filters="sRGB"><g><defs><linearGradient id="92" x1="0%" y1="0%" x2="100%" y2="0%"><stop offset="0%" stop-color="#fa71cd"></stop> <stop offset="100%" stop-color="#9b59b6"></stop></linearGradient><linearGradient id="93" x1="0%" y1="0%" x2="100%" y2="0%"><stop offset="0%" stop-color="#f9d423"></stop> <stop offset="100%" stop-color="#f83600"></stop></linearGradient><linearGradient id="94" x1="0%" y1="0%" x2="100%" y2="0%"><stop offset="0%" stop-color="#0064d2"></stop> <stop offset="100%" stop-color="#1cb0f6"></stop></linearGradient><linearGradient id="95" x1="0%" y1="0%" x2="100%" y2="0%"><stop offset="0%" stop-color="#f00978"></stop> <stop offset="100%" stop-color="#3f51b1"></stop></linearGradient><linearGradient id="96" x1="0%" y1="0%" x2="100%" y2="0%"><stop offset="0%" stop-color="#7873f5"></stop> <stop offset="100%" stop-color="#ec77ab"></stop></linearGradient><linearGradient id="97" x1="0%" y1="0%" x2="100%" y2="0%"><stop offset="0%" stop-color="#f9d423"></stop> <stop offset="100%" stop-color="#e14fad"></stop></linearGradient><linearGradient id="98" x1="0%" y1="0%" x2="100%" y2="0%"><stop offset="0%" stop-color="#009efd"></stop> <stop offset="100%" stop-color="#2af598"></stop></linearGradient><linearGradient id="99" x1="0%" y1="0%" x2="100%" y2="0%"><stop offset="0%" stop-color="#ffcc00"></stop> <stop offset="100%" stop-color="#00b140"></stop></linearGradient><linearGradient id="100" x1="0%" y1="0%" x2="100%" y2="0%"><stop offset="0%" stop-color="#d51007"></stop> <stop offset="100%" stop-color="#ff8177"></stop></linearGradient><linearGradient id="102" x1="0%" y1="0%" x2="100%" y2="0%"><stop offset="0%" stop-color="#a2b6df"></stop> <stop offset="100%" stop-color="#0c3483"></stop></linearGradient><linearGradient id="103" x1="0%" y1="0%" x2="100%" y2="0%"><stop offset="0%" stop-color="#7ac5d8"></stop> <stop offset="100%" stop-color="#eea2a2"></stop></linearGradient><linearGradient id="104" x1="0%" y1="0%" x2="100%" y2="0%"><stop offset="0%" stop-color="#00ecbc"></stop> <stop offset="100%" stop-color="#007adf"></stop></linearGradient><linearGradient id="105" x1="0%" y1="0%" x2="100%" y2="0%"><stop offset="0%" stop-color="#b88746"></stop> <stop offset="100%" stop-color="#fdf5a6"></stop></linearGradient></defs><g class="iconmbgsvg" transform="translate(64.79000091552734,82.00330352783203)"><g fill="#ffffff" hollow-target="text"><g transform="translate(135.4199981689453,0)" mask="url(#8baf6761-cbea-4bdb-833c-7e60a7a04e5e)"><g><rect fill="#ffffff" fill-opacity="0" stroke-width="2" x="0" y="0" width="75" height="85.99339570720969" class="image-rect"></rect> <svg filter="url(#colors3731789996)" x="0" y="0" width="75" height="85.99339570720969" filtersec="colorsf8446854792" class="image-svg-svg primary" style="overflow: visible;"><svg xmlns="http://www.w3.org/2000/svg" viewBox="12.22599983215332 -0.000054836273193359375 166.8040008544922 191.25405883789062"><path d="M162.929 66.612a6 6 0 1 0-6.35 10.183c6.544 4.081 10.45 11.121 10.45 18.833s-3.906 14.752-10.45 18.833l-98.417 61.365c-6.943 4.329-15.359 4.542-22.512.573-7.154-3.97-11.425-11.225-11.425-19.406V34.262c0-8.181 4.271-15.436 11.425-19.406 7.153-3.969 15.569-3.756 22.512.573l57.292 35.723a6 6 0 1 0 6.35-10.183L64.512 5.247c-10.696-6.669-23.661-7-34.685-.883-11.021 6.116-17.601 17.293-17.601 29.898v122.73c0 12.605 6.58 23.782 17.602 29.898 5.25 2.913 10.939 4.364 16.616 4.364 6.241 0 12.467-1.754 18.068-5.247l98.417-61.365c10.082-6.287 16.101-17.133 16.101-29.015s-6.019-22.728-16.101-29.015z" fill="#000000"></path></svg></svg> <defs><filter id="colors3731789996"><feColorMatrix type="matrix" values="0 0 0 0 0.09765625  0 0 0 0 0.53515625  0 0 0 0 0.8046875  0 0 0 1 0" class="icon-feColorMatrix "></feColorMatrix></filter> <filter id="colorsf8446854792"><feColorMatrix type="matrix" values="0 0 0 0 0.99609375  0 0 0 0 0.99609375  0 0 0 0 0.99609375  0 0 0 1 0" class="icon-fecolormatrix"></feColorMatrix></filter> <filter id="colorsb8490397180"><feColorMatrix type="matrix" values="0 0 0 0 0  0 0 0 0 0  0 0 0 0 0  0 0 0 1 0" class="icon-fecolormatrix"></feColorMatrix></filter></defs></g></g> <g transform="translate(0,25.042695999145508)"><g fill-rule="" class="tp-name" transform="translate(0,0)"><g transform="scale(1)"><g><path d="M16.56 0.6Q12.16 0.6 8.76-1.18 5.36-2.96 3.48-6.26 1.6-9.56 1.6-13.96L1.6-13.96Q1.6-18.36 3.48-21.66 5.36-24.96 8.76-26.76 12.16-28.56 16.56-28.56L16.56-28.56Q22.36-28.56 26.24-25.8L26.24-25.8 26.24-20.96Q22.76-23.92 17-23.92L17-23.92Q13.92-23.92 11.6-22.7 9.28-21.48 8-19.24 6.72-17 6.72-13.96L6.72-13.96Q6.72-10.92 8.02-8.68 9.32-6.44 11.64-5.22 13.96-4 17-4L17-4Q19.96-4 22.28-4.74 24.6-5.48 26.56-7.12L26.56-7.12 26.56-2.28Q22.88 0.6 16.56 0.6L16.56 0.6ZM40 0.6Q36.64 0.6 34.1-0.62 31.56-1.84 30.16-4.14 28.76-6.44 28.76-9.6L28.76-9.6Q28.76-12.68 30.14-14.98 31.52-17.28 34.08-18.54 36.64-19.8 40-19.8L40-19.8Q43.36-19.8 45.9-18.54 48.44-17.28 49.84-14.98 51.24-12.68 51.24-9.6L51.24-9.6Q51.24-6.44 49.84-4.14 48.44-1.84 45.9-0.62 43.36 0.6 40 0.6L40 0.6ZM40-3.36Q42.76-3.36 44.4-5.1 46.04-6.84 46.04-9.6L46.04-9.6Q46.04-12.52 44.42-14.18 42.8-15.84 40-15.84L40-15.84Q37.2-15.84 35.58-14.18 33.96-12.52 33.96-9.6L33.96-9.6Q33.96-6.84 35.6-5.1 37.24-3.36 40-3.36L40-3.36ZM55.24 0L55.24-19.2 59.96-19.2 59.96-16.68Q61.24-18.2 62.96-19 64.68-19.8 66.44-19.8L66.44-19.8Q68.68-19.8 70.04-19.06 71.4-18.32 72.08-16.84L72.08-16.84Q73.36-18.28 75.18-19.04 77-19.8 78.8-19.8L78.8-19.8Q82.4-19.8 83.96-18 85.52-16.2 85.52-12.72L85.52-12.72 85.52 0 80.68 0 80.68-12.04Q80.68-14.08 79.86-14.96 79.04-15.84 77.24-15.84L77.24-15.84Q75.96-15.84 74.9-15.34 73.84-14.84 72.96-13.64L72.96-13.64Q73.04-12.36 73.04-11.56L73.04-11.56 73.04 0 68.16 0 68.16-12.12Q68.16-14.2 67.48-15.02 66.8-15.84 65-15.84L65-15.84Q62.28-15.84 60.12-12.76L60.12-12.76 60.12 0 55.24 0ZM90.12 0L90.12-19.2 94.84-19.2 94.84-16.68Q96.12-18.2 97.84-19 99.56-19.8 101.32-19.8L101.32-19.8Q103.56-19.8 104.92-19.06 106.28-18.32 106.96-16.84L106.96-16.84Q108.24-18.28 110.06-19.04 111.88-19.8 113.68-19.8L113.68-19.8Q117.28-19.8 118.84-18 120.4-16.2 120.4-12.72L120.4-12.72 120.4 0 115.56 0 115.56-12.04Q115.56-14.08 114.74-14.96 113.92-15.84 112.12-15.84L112.12-15.84Q110.84-15.84 109.78-15.34 108.72-14.84 107.84-13.64L107.84-13.64Q107.92-12.36 107.92-11.56L107.92-11.56 107.92 0 103.04 0 103.04-12.12Q103.04-14.2 102.36-15.02 101.68-15.84 99.88-15.84L99.88-15.84Q97.16-15.84 95-12.76L95-12.76 95 0 90.12 0ZM127.84-22.56Q126.64-22.56 125.82-23.36 125-24.16 125-25.36L125-25.36Q125-26.56 125.82-27.38 126.64-28.2 127.84-28.2L127.84-28.2Q129.04-28.2 129.88-27.38 130.72-26.56 130.72-25.36L130.72-25.36Q130.72-24.16 129.88-23.36 129.04-22.56 127.84-22.56L127.84-22.56ZM125.28 0L125.28-19.2 130.4-19.2 130.4 0 125.28 0ZM143.24 0.6Q140.08 0.6 138.44-1.16 136.8-2.92 136.8-6.12L136.8-6.12 136.8-15.36 133.92-15.36 133.92-19.2 136.8-19.2 136.8-24.96 141.84-24.96 141.84-19.2 146.44-19.2 146.44-15.36 141.84-15.36 141.84-6.76Q141.84-4.92 142.52-4.14 143.2-3.36 145-3.36L145-3.36Q146.24-3.36 147.44-3.92L147.44-3.92 147.44-0.08Q145.72 0.6 143.24 0.6L143.24 0.6ZM157.76 0.6Q154.6 0.6 152.96-1.16 151.32-2.92 151.32-6.12L151.32-6.12 151.32-15.36 148.44-15.36 148.44-19.2 151.32-19.2 151.32-24.96 156.36-24.96 156.36-19.2 160.96-19.2 160.96-15.36 156.36-15.36 156.36-6.76Q156.36-4.92 157.04-4.14 157.72-3.36 159.52-3.36L159.52-3.36Q160.76-3.36 161.96-3.92L161.96-3.92 161.96-0.08Q160.24 0.6 157.76 0.6L157.76 0.6ZM172 0.6Q168.56 0.6 166.36-1.22 164.16-3.04 164.16-6.12L164.16-6.12Q164.16-9.32 166.24-11.12 168.32-12.92 172.08-12.92L172.08-12.92Q175.72-12.92 178.36-11.44L178.36-11.44 178.36-11.96Q178.36-14 177.1-14.92 175.84-15.84 173.04-15.84L173.04-15.84Q171.28-15.84 169.56-15.5 167.84-15.16 166.52-14.56L166.52-14.56 166.52-18.52Q167.72-19.08 169.74-19.44 171.76-19.8 173.64-19.8L173.64-19.8Q178.64-19.8 181.04-17.66 183.44-15.52 183.44-11.72L183.44-11.72 183.44 0 178.68 0 178.68-1.88Q177.44-0.68 175.86-0.04 174.28 0.6 172 0.6L172 0.6ZM173.24-3.08Q174.92-3.08 176.28-3.74 177.64-4.4 178.36-5.56L178.36-5.56 178.36-7.68Q176.16-9.24 173.32-9.24L173.32-9.24Q169.28-9.24 169.28-6.12L169.28-6.12Q169.28-4.6 170.3-3.84 171.32-3.08 173.24-3.08L173.24-3.08Z" transform="translate(-1.600000023841858, 28.559999465942383)"></path></g> </g></g> <g fill-rule="" class="tp-slogan" fill="#ffffff" transform="translate(22.799999237060547,34.15999984741211)"> <g transform="scale(1, 1)"><g transform="scale(1)"><path d="M3.14 0.18Q2.40 0.18 1.67 0.04Q0.95-0.10 0.48-0.32L0.48-0.32L0.48-1.63Q1.08-1.34 1.74-1.20Q2.40-1.06 3.04-1.06L3.04-1.06Q3.84-1.06 4.26-1.36Q4.68-1.66 4.68-2.18L4.68-2.18Q4.68-2.56 4.49-2.80Q4.30-3.05 3.92-3.23Q3.55-3.42 2.78-3.72L2.78-3.72Q1.61-4.20 1.08-4.79Q0.55-5.38 0.55-6.25L0.55-6.25Q0.55-6.94 0.92-7.46Q1.30-7.99 1.97-8.28Q2.64-8.57 3.52-8.57L3.52-8.57Q4.24-8.57 4.79-8.45Q5.35-8.34 5.89-8.10L5.89-8.10L5.89-6.83Q4.85-7.33 3.78-7.33L3.78-7.33Q3.01-7.33 2.59-7.05Q2.17-6.77 2.17-6.25L2.17-6.25Q2.17-5.88 2.36-5.65Q2.56-5.41 2.87-5.25Q3.19-5.09 4.02-4.74L4.02-4.74Q4.86-4.39 5.35-4.06Q5.83-3.72 6.08-3.27Q6.32-2.82 6.32-2.17L6.32-2.17Q6.32-1.06 5.52-0.44Q4.72 0.18 3.14 0.18L3.14 0.18ZM11.74 0.18Q10.48 0.18 9.46-0.37Q8.45-0.91 7.87-1.91Q7.28-2.90 7.28-4.19L7.28-4.19Q7.28-5.47 7.87-6.47Q8.45-7.46 9.46-8.02Q10.48-8.57 11.74-8.57L11.74-8.57Q12.98-8.57 14.00-8.02Q15.01-7.46 15.59-6.47Q16.18-5.47 16.18-4.19L16.18-4.19Q16.18-2.90 15.59-1.91Q15.01-0.92 14.00-0.37Q12.98 0.18 11.74 0.18L11.74 0.18ZM11.74-1.20Q12.54-1.20 13.20-1.57Q13.86-1.93 14.25-2.61Q14.64-3.29 14.64-4.19L14.64-4.19Q14.64-5.08 14.26-5.75Q13.87-6.43 13.21-6.80Q12.55-7.18 11.74-7.18L11.74-7.18Q10.92-7.18 10.25-6.80Q9.59-6.43 9.20-5.75Q8.82-5.08 8.82-4.19L8.82-4.19Q8.82-3.29 9.21-2.61Q9.60-1.93 10.27-1.57Q10.93-1.20 11.74-1.20L11.74-1.20ZM17.38 0L17.38-8.39L23.05-8.39L23.05-7.12L18.90-7.12L18.90-4.76L21.98-4.76L21.98-3.62L18.90-3.62L18.90 0L17.38 0ZM26.06 0L26.06-7.13L23.53-7.13L23.53-8.39L30.12-8.39L30.12-7.13L27.59-7.13L27.59 0L26.06 0ZM33.05 0L30.66-8.39L32.24-8.39L33.91-2.46L35.56-8.39L36.73-8.39L38.38-2.46L40.04-8.39L41.63-8.39L39.24 0L37.82 0L36.14-5.83L34.46 0L33.05 0ZM41.33 0L44.69-8.39L46.16-8.39L49.51 0L47.96 0L47.20-1.93L43.64-1.93L42.89 0L41.33 0ZM44.06-3.19L46.78-3.19L45.42-6.76L44.06-3.19ZM50.71 0L50.71-8.39L54.22-8.39Q55.61-8.39 56.36-7.70Q57.12-7.02 57.12-5.72L57.12-5.72Q57.12-4.80 56.66-4.15Q56.21-3.50 55.37-3.23L55.37-3.23L57.07 0L55.51 0L53.89-3.07L52.24-3.07L52.24 0L50.71 0ZM52.24-4.33L53.94-4.33Q54.68-4.33 55.14-4.68Q55.60-5.03 55.60-5.72L55.60-5.72Q55.60-7.13 53.94-7.13L53.94-7.13L52.24-7.13L52.24-4.33ZM58.32 0L58.32-8.39L64.00-8.39L64.00-7.13L59.84-7.13L59.84-4.82L62.93-4.82L62.93-3.56L59.84-3.56L59.84-1.26L64.00-1.26L64.00 0L58.32 0ZM69.40 0L69.40-8.39L70.92-8.39L70.92-4.91L74.95-4.91L74.95-8.39L76.46-8.39L76.46 0L74.95 0L74.95-3.65L70.92-3.65L70.92 0L69.40 0ZM82.12 0.18Q80.86 0.18 79.84-0.37Q78.83-0.91 78.25-1.91Q77.66-2.90 77.66-4.19L77.66-4.19Q77.66-5.47 78.25-6.47Q78.83-7.46 79.84-8.02Q80.86-8.57 82.12-8.57L82.12-8.57Q83.36-8.57 84.38-8.02Q85.39-7.46 85.97-6.47Q86.56-5.47 86.56-4.19L86.56-4.19Q86.56-2.90 85.97-1.91Q85.39-0.92 84.38-0.37Q83.36 0.18 82.12 0.18L82.12 0.18ZM82.12-1.20Q82.92-1.20 83.58-1.57Q84.24-1.93 84.63-2.61Q85.02-3.29 85.02-4.19L85.02-4.19Q85.02-5.08 84.64-5.75Q84.25-6.43 83.59-6.80Q82.93-7.18 82.12-7.18L82.12-7.18Q81.30-7.18 80.63-6.80Q79.97-6.43 79.58-5.75Q79.20-5.08 79.20-4.19L79.20-4.19Q79.20-3.29 79.59-2.61Q79.98-1.93 80.65-1.57Q81.31-1.20 82.12-1.20L82.12-1.20ZM91.28 0.18Q89.51 0.18 88.60-0.75Q87.70-1.68 87.70-3.26L87.70-3.26L87.70-8.39L89.22-8.39L89.22-3.24Q89.22-2.24 89.78-1.72Q90.34-1.20 91.28-1.20L91.28-1.20Q92.22-1.20 92.78-1.72Q93.34-2.24 93.34-3.24L93.34-3.24L93.34-8.39L94.86-8.39L94.86-3.26Q94.86-1.68 93.96-0.75Q93.06 0.18 91.28 0.18L91.28 0.18ZM98.66 0.18Q97.92 0.18 97.19 0.04Q96.47-0.10 96.00-0.32L96.00-0.32L96.00-1.63Q96.60-1.34 97.26-1.20Q97.92-1.06 98.56-1.06L98.56-1.06Q99.36-1.06 99.78-1.36Q100.20-1.66 100.20-2.18L100.20-2.18Q100.20-2.56 100.01-2.80Q99.82-3.05 99.44-3.23Q99.07-3.42 98.30-3.72L98.30-3.72Q97.13-4.20 96.60-4.79Q96.07-5.38 96.07-6.25L96.07-6.25Q96.07-6.94 96.44-7.46Q96.82-7.99 97.49-8.28Q98.16-8.57 99.04-8.57L99.04-8.57Q99.76-8.57 100.31-8.45Q100.87-8.34 101.41-8.10L101.41-8.10L101.41-6.83Q100.37-7.33 99.30-7.33L99.30-7.33Q98.53-7.33 98.11-7.05Q97.69-6.77 97.69-6.25L97.69-6.25Q97.69-5.88 97.88-5.65Q98.08-5.41 98.39-5.25Q98.71-5.09 99.54-4.74L99.54-4.74Q100.38-4.39 100.87-4.06Q101.35-3.72 101.60-3.27Q101.84-2.82 101.84-2.17L101.84-2.17Q101.84-1.06 101.04-0.44Q100.24 0.18 98.66 0.18L98.66 0.18ZM103.04 0L103.04-8.39L108.72-8.39L108.72-7.13L104.57-7.13L104.57-4.82L107.65-4.82L107.65-3.56L104.57-3.56L104.57-1.26L108.72-1.26L108.72 0L103.04 0Z" transform="translate(-0.48, 8.568)"></path></g></g></g></g></g></g><mask id="8baf6761-cbea-4bdb-833c-7e60a7a04e5e"><g fill="white"><g><rect fill-opacity="1" stroke-width="2" x="0" y="0" width="75" height="85.99339570720969" class="image-rect"></rect> <svg x="0" y="0" width="75" height="85.99339570720969" class="image-svg-svg primary" style="overflow: visible;" filter="url(#colorsf8446854792)"><svg xmlns="http://www.w3.org/2000/svg" viewBox="12.22599983215332 -0.000054836273193359375 166.8040008544922 191.25405883789062"><path d="M162.929 66.612a6 6 0 1 0-6.35 10.183c6.544 4.081 10.45 11.121 10.45 18.833s-3.906 14.752-10.45 18.833l-98.417 61.365c-6.943 4.329-15.359 4.542-22.512.573-7.154-3.97-11.425-11.225-11.425-19.406V34.262c0-8.181 4.271-15.436 11.425-19.406 7.153-3.969 15.569-3.756 22.512.573l57.292 35.723a6 6 0 1 0 6.35-10.183L64.512 5.247c-10.696-6.669-23.661-7-34.685-.883-11.021 6.116-17.601 17.293-17.601 29.898v122.73c0 12.605 6.58 23.782 17.602 29.898 5.25 2.913 10.939 4.364 16.616 4.364 6.241 0 12.467-1.754 18.068-5.247l98.417-61.365c10.082-6.287 16.101-17.133 16.101-29.015s-6.019-22.728-16.101-29.015z"></path></svg></svg> <defs> </defs></g></g> <g transform="translate(-135.4199981689453,25.042695999145508)" fill="black" stroke="black" stroke-width="6" stroke-linejoin="round"><g fill-rule="" class="tp-name" transform="translate(0,0)"><g transform="scale(1)"><g><path d="M16.56 0.6Q12.16 0.6 8.76-1.18 5.36-2.96 3.48-6.26 1.6-9.56 1.6-13.96L1.6-13.96Q1.6-18.36 3.48-21.66 5.36-24.96 8.76-26.76 12.16-28.56 16.56-28.56L16.56-28.56Q22.36-28.56 26.24-25.8L26.24-25.8 26.24-20.96Q22.76-23.92 17-23.92L17-23.92Q13.92-23.92 11.6-22.7 9.28-21.48 8-19.24 6.72-17 6.72-13.96L6.72-13.96Q6.72-10.92 8.02-8.68 9.32-6.44 11.64-5.22 13.96-4 17-4L17-4Q19.96-4 22.28-4.74 24.6-5.48 26.56-7.12L26.56-7.12 26.56-2.28Q22.88 0.6 16.56 0.6L16.56 0.6ZM40 0.6Q36.64 0.6 34.1-0.62 31.56-1.84 30.16-4.14 28.76-6.44 28.76-9.6L28.76-9.6Q28.76-12.68 30.14-14.98 31.52-17.28 34.08-18.54 36.64-19.8 40-19.8L40-19.8Q43.36-19.8 45.9-18.54 48.44-17.28 49.84-14.98 51.24-12.68 51.24-9.6L51.24-9.6Q51.24-6.44 49.84-4.14 48.44-1.84 45.9-0.62 43.36 0.6 40 0.6L40 0.6ZM40-3.36Q42.76-3.36 44.4-5.1 46.04-6.84 46.04-9.6L46.04-9.6Q46.04-12.52 44.42-14.18 42.8-15.84 40-15.84L40-15.84Q37.2-15.84 35.58-14.18 33.96-12.52 33.96-9.6L33.96-9.6Q33.96-6.84 35.6-5.1 37.24-3.36 40-3.36L40-3.36ZM55.24 0L55.24-19.2 59.96-19.2 59.96-16.68Q61.24-18.2 62.96-19 64.68-19.8 66.44-19.8L66.44-19.8Q68.68-19.8 70.04-19.06 71.4-18.32 72.08-16.84L72.08-16.84Q73.36-18.28 75.18-19.04 77-19.8 78.8-19.8L78.8-19.8Q82.4-19.8 83.96-18 85.52-16.2 85.52-12.72L85.52-12.72 85.52 0 80.68 0 80.68-12.04Q80.68-14.08 79.86-14.96 79.04-15.84 77.24-15.84L77.24-15.84Q75.96-15.84 74.9-15.34 73.84-14.84 72.96-13.64L72.96-13.64Q73.04-12.36 73.04-11.56L73.04-11.56 73.04 0 68.16 0 68.16-12.12Q68.16-14.2 67.48-15.02 66.8-15.84 65-15.84L65-15.84Q62.28-15.84 60.12-12.76L60.12-12.76 60.12 0 55.24 0ZM90.12 0L90.12-19.2 94.84-19.2 94.84-16.68Q96.12-18.2 97.84-19 99.56-19.8 101.32-19.8L101.32-19.8Q103.56-19.8 104.92-19.06 106.28-18.32 106.96-16.84L106.96-16.84Q108.24-18.28 110.06-19.04 111.88-19.8 113.68-19.8L113.68-19.8Q117.28-19.8 118.84-18 120.4-16.2 120.4-12.72L120.4-12.72 120.4 0 115.56 0 115.56-12.04Q115.56-14.08 114.74-14.96 113.92-15.84 112.12-15.84L112.12-15.84Q110.84-15.84 109.78-15.34 108.72-14.84 107.84-13.64L107.84-13.64Q107.92-12.36 107.92-11.56L107.92-11.56 107.92 0 103.04 0 103.04-12.12Q103.04-14.2 102.36-15.02 101.68-15.84 99.88-15.84L99.88-15.84Q97.16-15.84 95-12.76L95-12.76 95 0 90.12 0ZM127.84-22.56Q126.64-22.56 125.82-23.36 125-24.16 125-25.36L125-25.36Q125-26.56 125.82-27.38 126.64-28.2 127.84-28.2L127.84-28.2Q129.04-28.2 129.88-27.38 130.72-26.56 130.72-25.36L130.72-25.36Q130.72-24.16 129.88-23.36 129.04-22.56 127.84-22.56L127.84-22.56ZM125.28 0L125.28-19.2 130.4-19.2 130.4 0 125.28 0ZM143.24 0.6Q140.08 0.6 138.44-1.16 136.8-2.92 136.8-6.12L136.8-6.12 136.8-15.36 133.92-15.36 133.92-19.2 136.8-19.2 136.8-24.96 141.84-24.96 141.84-19.2 146.44-19.2 146.44-15.36 141.84-15.36 141.84-6.76Q141.84-4.92 142.52-4.14 143.2-3.36 145-3.36L145-3.36Q146.24-3.36 147.44-3.92L147.44-3.92 147.44-0.08Q145.72 0.6 143.24 0.6L143.24 0.6ZM157.76 0.6Q154.6 0.6 152.96-1.16 151.32-2.92 151.32-6.12L151.32-6.12 151.32-15.36 148.44-15.36 148.44-19.2 151.32-19.2 151.32-24.96 156.36-24.96 156.36-19.2 160.96-19.2 160.96-15.36 156.36-15.36 156.36-6.76Q156.36-4.92 157.04-4.14 157.72-3.36 159.52-3.36L159.52-3.36Q160.76-3.36 161.96-3.92L161.96-3.92 161.96-0.08Q160.24 0.6 157.76 0.6L157.76 0.6ZM172 0.6Q168.56 0.6 166.36-1.22 164.16-3.04 164.16-6.12L164.16-6.12Q164.16-9.32 166.24-11.12 168.32-12.92 172.08-12.92L172.08-12.92Q175.72-12.92 178.36-11.44L178.36-11.44 178.36-11.96Q178.36-14 177.1-14.92 175.84-15.84 173.04-15.84L173.04-15.84Q171.28-15.84 169.56-15.5 167.84-15.16 166.52-14.56L166.52-14.56 166.52-18.52Q167.72-19.08 169.74-19.44 171.76-19.8 173.64-19.8L173.64-19.8Q178.64-19.8 181.04-17.66 183.44-15.52 183.44-11.72L183.44-11.72 183.44 0 178.68 0 178.68-1.88Q177.44-0.68 175.86-0.04 174.28 0.6 172 0.6L172 0.6ZM173.24-3.08Q174.92-3.08 176.28-3.74 177.64-4.4 178.36-5.56L178.36-5.56 178.36-7.68Q176.16-9.24 173.32-9.24L173.32-9.24Q169.28-9.24 169.28-6.12L169.28-6.12Q169.28-4.6 170.3-3.84 171.32-3.08 173.24-3.08L173.24-3.08Z" transform="translate(-1.600000023841858, 28.559999465942383)"></path></g> </g></g> <g fill-rule="" class="tp-slogan" transform="translate(22.799999237060547,34.15999984741211)" fill="white"> <g transform="scale(1, 1)"><g transform="scale(1)"><path d="M3.14 0.18Q2.40 0.18 1.67 0.04Q0.95-0.10 0.48-0.32L0.48-0.32L0.48-1.63Q1.08-1.34 1.74-1.20Q2.40-1.06 3.04-1.06L3.04-1.06Q3.84-1.06 4.26-1.36Q4.68-1.66 4.68-2.18L4.68-2.18Q4.68-2.56 4.49-2.80Q4.30-3.05 3.92-3.23Q3.55-3.42 2.78-3.72L2.78-3.72Q1.61-4.20 1.08-4.79Q0.55-5.38 0.55-6.25L0.55-6.25Q0.55-6.94 0.92-7.46Q1.30-7.99 1.97-8.28Q2.64-8.57 3.52-8.57L3.52-8.57Q4.24-8.57 4.79-8.45Q5.35-8.34 5.89-8.10L5.89-8.10L5.89-6.83Q4.85-7.33 3.78-7.33L3.78-7.33Q3.01-7.33 2.59-7.05Q2.17-6.77 2.17-6.25L2.17-6.25Q2.17-5.88 2.36-5.65Q2.56-5.41 2.87-5.25Q3.19-5.09 4.02-4.74L4.02-4.74Q4.86-4.39 5.35-4.06Q5.83-3.72 6.08-3.27Q6.32-2.82 6.32-2.17L6.32-2.17Q6.32-1.06 5.52-0.44Q4.72 0.18 3.14 0.18L3.14 0.18ZM11.74 0.18Q10.48 0.18 9.46-0.37Q8.45-0.91 7.87-1.91Q7.28-2.90 7.28-4.19L7.28-4.19Q7.28-5.47 7.87-6.47Q8.45-7.46 9.46-8.02Q10.48-8.57 11.74-8.57L11.74-8.57Q12.98-8.57 14.00-8.02Q15.01-7.46 15.59-6.47Q16.18-5.47 16.18-4.19L16.18-4.19Q16.18-2.90 15.59-1.91Q15.01-0.92 14.00-0.37Q12.98 0.18 11.74 0.18L11.74 0.18ZM11.74-1.20Q12.54-1.20 13.20-1.57Q13.86-1.93 14.25-2.61Q14.64-3.29 14.64-4.19L14.64-4.19Q14.64-5.08 14.26-5.75Q13.87-6.43 13.21-6.80Q12.55-7.18 11.74-7.18L11.74-7.18Q10.92-7.18 10.25-6.80Q9.59-6.43 9.20-5.75Q8.82-5.08 8.82-4.19L8.82-4.19Q8.82-3.29 9.21-2.61Q9.60-1.93 10.27-1.57Q10.93-1.20 11.74-1.20L11.74-1.20ZM17.38 0L17.38-8.39L23.05-8.39L23.05-7.12L18.90-7.12L18.90-4.76L21.98-4.76L21.98-3.62L18.90-3.62L18.90 0L17.38 0ZM26.06 0L26.06-7.13L23.53-7.13L23.53-8.39L30.12-8.39L30.12-7.13L27.59-7.13L27.59 0L26.06 0ZM33.05 0L30.66-8.39L32.24-8.39L33.91-2.46L35.56-8.39L36.73-8.39L38.38-2.46L40.04-8.39L41.63-8.39L39.24 0L37.82 0L36.14-5.83L34.46 0L33.05 0ZM41.33 0L44.69-8.39L46.16-8.39L49.51 0L47.96 0L47.20-1.93L43.64-1.93L42.89 0L41.33 0ZM44.06-3.19L46.78-3.19L45.42-6.76L44.06-3.19ZM50.71 0L50.71-8.39L54.22-8.39Q55.61-8.39 56.36-7.70Q57.12-7.02 57.12-5.72L57.12-5.72Q57.12-4.80 56.66-4.15Q56.21-3.50 55.37-3.23L55.37-3.23L57.07 0L55.51 0L53.89-3.07L52.24-3.07L52.24 0L50.71 0ZM52.24-4.33L53.94-4.33Q54.68-4.33 55.14-4.68Q55.60-5.03 55.60-5.72L55.60-5.72Q55.60-7.13 53.94-7.13L53.94-7.13L52.24-7.13L52.24-4.33ZM58.32 0L58.32-8.39L64.00-8.39L64.00-7.13L59.84-7.13L59.84-4.82L62.93-4.82L62.93-3.56L59.84-3.56L59.84-1.26L64.00-1.26L64.00 0L58.32 0ZM69.40 0L69.40-8.39L70.92-8.39L70.92-4.91L74.95-4.91L74.95-8.39L76.46-8.39L76.46 0L74.95 0L74.95-3.65L70.92-3.65L70.92 0L69.40 0ZM82.12 0.18Q80.86 0.18 79.84-0.37Q78.83-0.91 78.25-1.91Q77.66-2.90 77.66-4.19L77.66-4.19Q77.66-5.47 78.25-6.47Q78.83-7.46 79.84-8.02Q80.86-8.57 82.12-8.57L82.12-8.57Q83.36-8.57 84.38-8.02Q85.39-7.46 85.97-6.47Q86.56-5.47 86.56-4.19L86.56-4.19Q86.56-2.90 85.97-1.91Q85.39-0.92 84.38-0.37Q83.36 0.18 82.12 0.18L82.12 0.18ZM82.12-1.20Q82.92-1.20 83.58-1.57Q84.24-1.93 84.63-2.61Q85.02-3.29 85.02-4.19L85.02-4.19Q85.02-5.08 84.64-5.75Q84.25-6.43 83.59-6.80Q82.93-7.18 82.12-7.18L82.12-7.18Q81.30-7.18 80.63-6.80Q79.97-6.43 79.58-5.75Q79.20-5.08 79.20-4.19L79.20-4.19Q79.20-3.29 79.59-2.61Q79.98-1.93 80.65-1.57Q81.31-1.20 82.12-1.20L82.12-1.20ZM91.28 0.18Q89.51 0.18 88.60-0.75Q87.70-1.68 87.70-3.26L87.70-3.26L87.70-8.39L89.22-8.39L89.22-3.24Q89.22-2.24 89.78-1.72Q90.34-1.20 91.28-1.20L91.28-1.20Q92.22-1.20 92.78-1.72Q93.34-2.24 93.34-3.24L93.34-3.24L93.34-8.39L94.86-8.39L94.86-3.26Q94.86-1.68 93.96-0.75Q93.06 0.18 91.28 0.18L91.28 0.18ZM98.66 0.18Q97.92 0.18 97.19 0.04Q96.47-0.10 96.00-0.32L96.00-0.32L96.00-1.63Q96.60-1.34 97.26-1.20Q97.92-1.06 98.56-1.06L98.56-1.06Q99.36-1.06 99.78-1.36Q100.20-1.66 100.20-2.18L100.20-2.18Q100.20-2.56 100.01-2.80Q99.82-3.05 99.44-3.23Q99.07-3.42 98.30-3.72L98.30-3.72Q97.13-4.20 96.60-4.79Q96.07-5.38 96.07-6.25L96.07-6.25Q96.07-6.94 96.44-7.46Q96.82-7.99 97.49-8.28Q98.16-8.57 99.04-8.57L99.04-8.57Q99.76-8.57 100.31-8.45Q100.87-8.34 101.41-8.10L101.41-8.10L101.41-6.83Q100.37-7.33 99.30-7.33L99.30-7.33Q98.53-7.33 98.11-7.05Q97.69-6.77 97.69-6.25L97.69-6.25Q97.69-5.88 97.88-5.65Q98.08-5.41 98.39-5.25Q98.71-5.09 99.54-4.74L99.54-4.74Q100.38-4.39 100.87-4.06Q101.35-3.72 101.60-3.27Q101.84-2.82 101.84-2.17L101.84-2.17Q101.84-1.06 101.04-0.44Q100.24 0.18 98.66 0.18L98.66 0.18ZM103.04 0L103.04-8.39L108.72-8.39L108.72-7.13L104.57-7.13L104.57-4.82L107.65-4.82L107.65-3.56L104.57-3.56L104.57-1.26L108.72-1.26L108.72 0L103.04 0Z" transform="translate(-0.48, 8.568)"></path></g></g></g></g></mask><defs v-gra="od"></defs></g></svg>